<?xml version="1.0" encoding="UTF-8" standalone="no"?>
<!DOCTYPE svg PUBLIC "-//W3C//DTD SVG 1.1//EN" "http://www.w3.org/Graphics/SVG/1.1/DTD/svg11.dtd">
<svg width="100%" height="100%" viewBox="0 0 512 512" version="1.1" xmlns="http://www.w3.org/2000/svg" xmlns:xlink="http://www.w3.org/1999/xlink" xml:space="preserve" xmlns:serif="http://www.serif.com/" style="fill-rule:evenodd;clip-rule:evenodd;stroke-linejoin:round;stroke-miterlimit:1.41421;">
    <rect x="0" y="0" width="512" height="512" style="fill:white;"/>
    <path d="M327.896,100.425C325.297,97.991 323.5,94.836 322.786,91.348C314.485,50.796 278.61,20.291 235.604,20.291C223.062,20.291 211.128,22.888 200.306,27.57C196.88,29.052 192.949,28.808 189.808,26.791C179.516,20.181 167.278,16.339 154.137,16.339C121.006,16.339 93.572,40.697 88.749,72.482C88.141,76.486 84.968,79.586 80.946,80.058C42.453,84.575 12.583,117.285 12.583,156.991C12.583,166.049 19.926,173.392 28.984,173.392L336.04,173.392C345.098,173.392 352.441,166.049 352.441,156.991C352.441,134.671 342.998,114.563 327.896,100.425Z" style="fill:rgb(139,205,216);fill-rule:nonzero;"/>
    <path d="M468.606,190.947C464.805,187.388 462.178,182.774 461.134,177.673C448.995,118.372 396.532,73.762 333.642,73.762C315.301,73.762 297.849,77.56 282.023,84.407C277.013,86.574 271.264,86.218 266.671,83.268C251.62,73.601 233.723,67.983 214.506,67.983C166.056,67.983 125.938,103.604 118.884,150.084C117.995,155.939 113.354,160.472 107.473,161.163C51.181,167.768 7.5,215.602 7.5,273.667C7.5,286.913 18.238,297.652 31.485,297.652L480.515,297.652C493.761,297.652 504.5,286.914 504.5,273.667C504.5,241.027 490.691,211.623 468.606,190.947Z" style="fill:rgb(185,232,239);fill-rule:nonzero;"/>
    <path d="M209.192,68.141C163.15,70.636 125.678,105.315 118.883,150.083C117.995,155.938 113.353,160.471 107.472,161.162C51.181,167.768 7.5,215.602 7.5,273.667C7.5,286.913 18.238,297.652 31.485,297.652L260.511,297.652C156.424,259.919 164.69,107.559 209.192,68.141Z" style="fill:rgb(171,223,235);fill-rule:nonzero;"/>
    <g>
        <path d="M151.677,240.919C147.641,240.919 144.309,237.71 144.185,233.648C143.608,214.776 155.149,197.755 172.902,191.293C187.265,186.066 203.56,188.818 215.426,198.477C218.639,201.092 219.123,205.816 216.509,209.028C213.894,212.241 209.169,212.724 205.958,210.11C198.045,203.669 187.606,201.904 178.033,205.388C166.377,209.63 158.8,220.803 159.179,233.19C159.305,237.33 156.052,240.789 151.911,240.916C151.833,240.917 151.755,240.919 151.677,240.919Z" style="fill:rgb(139,205,216);fill-rule:nonzero;"/>
        <path d="M403.395,226.779C402.591,226.779 401.773,226.649 400.969,226.374C397.05,225.035 394.958,220.771 396.297,216.851C400.684,204.014 397.454,190.083 387.868,180.497C377.609,170.238 362.368,167.306 349.036,173.021C345.23,174.654 340.821,172.892 339.187,169.084C337.555,165.277 339.317,160.868 343.124,159.235C362.126,151.087 383.853,155.268 398.475,169.89C412.139,183.554 416.743,203.407 410.492,221.701C409.427,224.818 406.515,226.779 403.395,226.779Z" style="fill:rgb(139,205,216);fill-rule:nonzero;"/>
        <path d="M211.537,138.309C210.802,138.309 210.056,138.2 209.317,137.972C205.361,136.747 203.146,132.547 204.37,128.59C207.811,117.471 217.949,110 229.597,110C240.232,110 249.781,116.329 253.923,126.125C255.536,129.94 253.752,134.34 249.937,135.954C246.121,137.569 241.722,135.783 240.108,131.968C238.318,127.736 234.193,125.001 229.597,125.001C224.565,125.001 220.185,128.226 218.699,133.026C217.703,136.242 214.738,138.309 211.537,138.309Z" style="fill:rgb(139,205,216);fill-rule:nonzero;"/>
    </g>
    <path d="M160.94,451.693C157.049,450.277 152.744,452.283 151.327,456.176L137.891,493.093C136.474,496.985 138.481,501.289 142.374,502.706C143.221,503.014 144.086,503.16 144.938,503.16C148.001,503.16 150.878,501.268 151.986,498.223L165.423,461.306C166.84,457.414 164.833,453.11 160.94,451.693ZM213.488,384.845C209.597,383.429 205.292,385.435 203.875,389.328L190.438,426.245C189.022,430.137 191.028,434.441 194.921,435.858C195.768,436.166 196.633,436.312 197.485,436.312C200.548,436.312 203.425,434.42 204.533,431.375L217.969,394.458C219.387,390.565 217.38,386.262 213.488,384.845ZM192.845,318.257C188.955,316.841 184.649,318.847 183.232,322.74L169.796,359.657C168.379,363.549 170.386,367.853 174.279,369.27C175.126,369.578 175.991,369.724 176.843,369.724C179.906,369.724 182.783,367.832 183.891,364.787L197.328,327.87C198.745,323.978 196.738,319.674 192.845,318.257ZM112.549,318.544C108.658,317.129 104.353,319.134 102.936,323.027L89.499,359.944C88.083,363.836 90.089,368.14 93.982,369.557C94.829,369.865 95.694,370.011 96.546,370.011C99.609,370.011 102.486,368.119 103.594,365.074L117.031,328.157C118.448,324.264 116.441,319.961 112.549,318.544ZM133.191,385.131C129.297,383.715 124.996,385.721 123.578,389.614L110.141,426.531C108.725,430.423 110.731,434.727 114.624,436.144C115.471,436.452 116.337,436.598 117.188,436.598C120.251,436.598 123.127,434.707 124.236,431.661L137.672,394.744C139.091,390.851 137.084,386.548 133.191,385.131ZM126.298,151.21C129.466,130.338 140.044,111.181 156.085,97.27C172.285,83.221 193.032,75.483 214.506,75.483C231.623,75.483 248.259,80.357 262.618,89.579C269.256,93.842 277.624,94.483 285,91.291C295.64,86.688 306.752,83.657 318.185,82.224C318.345,82.212 318.505,82.192 318.666,82.169C323.603,81.57 328.598,81.263 333.641,81.263C368.663,81.263 402.098,96.295 425.371,122.504C428.121,125.601 432.862,125.884 435.959,123.132C439.056,120.382 439.337,115.642 436.587,112.544C410.47,83.131 372.947,66.263 333.641,66.263C329.798,66.263 325.982,66.427 322.191,66.737C306.015,33.793 272.625,12.792 235.604,12.792C222.315,12.792 209.437,15.448 197.327,20.688C196.151,21.197 194.855,21.121 193.861,20.482C182.003,12.865 168.267,8.84 154.137,8.84C136.413,8.84 119.287,15.228 105.914,26.826C92.679,38.302 83.95,54.117 81.333,71.356C81.231,72.028 80.724,72.531 80.071,72.608C37.32,77.625 5.082,113.901 5.082,156.99C5.082,170.169 15.804,180.891 28.983,180.891L43.41,180.891C16.746,203.164 0,236.645 0,273.667C0,291.028 14.124,305.152 31.485,305.152L59.544,305.152C63.686,305.152 67.044,301.794 67.044,297.652C67.044,293.51 63.686,290.152 59.544,290.152L31.485,290.152C22.395,290.152 15,282.757 15,273.667C15,233.567 37.424,198.21 70.972,180.3C71.317,180.154 71.645,179.975 71.962,179.781C83.039,174.018 95.298,170.142 108.347,168.611C117.525,167.535 124.907,160.378 126.298,151.21ZM66.168,165.891L28.984,165.891C24.076,165.891 20.083,161.898 20.083,156.99C20.083,121.508 46.624,91.636 81.82,87.506C89.155,86.645 95.053,80.929 96.164,73.607C98.246,59.891 105.199,47.301 115.742,38.157C126.388,28.924 140.024,23.839 154.138,23.839C165.388,23.839 176.321,27.042 185.756,33.102C190.961,36.445 197.514,36.951 203.285,34.454C213.503,30.034 224.377,27.792 235.605,27.792C265.19,27.792 292.035,43.673 306.412,68.956C297.047,70.837 287.901,73.693 279.044,77.524C276.261,78.729 273.151,78.516 270.723,76.958C253.942,66.18 234.502,60.483 214.506,60.483C189.422,60.483 165.184,69.523 146.257,85.938C127.525,102.183 115.17,124.564 111.468,148.959C111.081,151.507 109.124,153.417 106.598,153.714C92.135,155.41 78.522,159.63 66.168,165.891ZM293.784,384.558C289.894,383.143 285.588,385.148 284.171,389.041L270.734,425.958C269.318,429.85 271.324,434.154 275.217,435.571C276.064,435.879 276.929,436.025 277.781,436.025C280.844,436.025 283.721,434.133 284.829,431.088L298.266,394.171C299.683,390.279 297.676,385.975 293.784,384.558ZM241.237,451.407C237.348,449.991 233.041,451.997 231.624,455.89L218.187,492.807C216.771,496.699 218.777,501.003 222.67,502.42C223.517,502.728 224.382,502.874 225.234,502.874C228.297,502.874 231.174,500.982 232.282,497.937L245.719,461.02C247.136,457.127 245.129,452.823 241.237,451.407ZM374.08,384.272C370.189,382.857 365.884,384.862 364.467,388.755L351.031,425.672C349.614,429.564 351.621,433.868 355.514,435.285C356.361,435.593 357.226,435.739 358.078,435.739C361.141,435.739 364.018,433.847 365.126,430.802L378.562,393.885C379.979,389.992 377.973,385.689 374.08,384.272ZM473.732,185.473C471.024,182.937 469.208,179.72 468.481,176.169C466.339,165.702 462.962,155.483 458.445,145.797C456.695,142.043 452.23,140.418 448.478,142.169C444.724,143.92 443.1,148.382 444.85,152.136C448.872,160.761 451.878,169.859 453.785,179.178C455.139,185.789 458.491,191.752 463.479,196.423C485.096,216.66 497,244.092 497,273.667C497,282.757 489.605,290.152 480.515,290.152L101.968,290.152C97.826,290.152 94.468,293.51 94.468,297.652C94.468,301.794 97.826,305.152 101.968,305.152L480.515,305.152C497.876,305.152 512,291.028 512,273.667C512,240.387 498.052,208.242 473.732,185.473ZM433.734,317.398C429.844,315.981 425.538,317.988 424.121,321.881L410.684,358.798C409.268,362.69 411.274,366.994 415.167,368.411C416.014,368.719 416.879,368.865 417.731,368.865C420.794,368.865 423.671,366.973 424.779,363.928L438.216,327.011C439.633,323.119 437.626,318.815 433.734,317.398ZM353.438,317.684C349.547,316.269 345.242,318.274 343.825,322.167L330.389,359.084C328.972,362.976 330.979,367.28 334.872,368.697C335.719,369.005 336.584,369.151 337.436,369.151C340.499,369.151 343.376,367.259 344.484,364.214L357.92,327.298C359.337,323.405 357.33,319.101 353.438,317.684ZM273.142,317.971C269.251,316.556 264.946,318.561 263.529,322.454L250.093,359.37C248.677,363.262 250.683,367.566 254.576,368.983C255.423,369.291 256.288,369.437 257.14,369.437C260.203,369.437 263.08,367.545 264.188,364.5L277.624,327.583C279.041,323.692 277.034,319.388 273.142,317.971ZM321.533,451.12C317.643,449.705 313.337,451.71 311.92,455.603L298.484,492.52C297.067,496.412 299.074,500.716 302.967,502.133C303.814,502.441 304.679,502.587 305.532,502.587C308.595,502.587 311.472,500.695 312.58,497.65L326.016,460.734C327.432,456.841 325.425,452.537 321.533,451.12Z" style="fill-rule:nonzero;"/>
</svg>
