<?xml version="1.0" encoding="iso-8859-1"?>
<!-- Generator: Adobe Illustrator 19.0.0, SVG Export Plug-In . SVG Version: 6.00 Build 0)  -->
<svg version="1.1" id="Capa_1" xmlns="http://www.w3.org/2000/svg" xmlns:xlink="http://www.w3.org/1999/xlink" x="0px" y="0px"
	 viewBox="0 0 512 512" style="enable-background:new 0 0 512 512;" xml:space="preserve">
<path style="fill:#8BCDD8;" d="M327.896,100.425c-2.599-2.434-4.396-5.589-5.11-9.077c-8.301-40.552-44.176-71.057-87.182-71.057
	c-12.542,0-24.476,2.597-35.298,7.279c-3.426,1.482-7.357,1.238-10.498-0.779c-10.292-6.61-22.53-10.452-35.671-10.452
	c-33.131,0-60.565,24.358-65.388,56.143c-0.608,4.004-3.781,7.104-7.803,7.576c-38.493,4.517-68.363,37.227-68.363,76.933l0,0
	c0,9.058,7.343,16.401,16.401,16.401H336.04c9.058,0,16.401-7.343,16.401-16.401l0,0
	C352.441,134.671,342.998,114.563,327.896,100.425z"/>
<path style="fill:#B9E8EF;" d="M468.606,190.947c-3.801-3.559-6.428-8.173-7.472-13.274
	c-12.139-59.301-64.602-103.911-127.492-103.911c-18.341,0-35.793,3.798-51.619,10.645c-5.01,2.167-10.759,1.811-15.352-1.139
	c-15.051-9.667-32.948-15.285-52.165-15.285c-48.45,0-88.568,35.621-95.622,82.101c-0.889,5.855-5.53,10.388-11.411,11.079
	C51.181,167.768,7.5,215.602,7.5,273.667l0,0c0,13.246,10.738,23.985,23.985,23.985h449.03c13.246,0,23.985-10.738,23.985-23.985
	l0,0C504.5,241.027,490.691,211.623,468.606,190.947z"/>
<path style="fill:#ABDFEB;" d="M209.192,68.141c-46.042,2.495-83.514,37.174-90.309,81.942c-0.888,5.855-5.53,10.388-11.411,11.079
	C51.181,167.768,7.5,215.602,7.5,273.667l0,0c0,13.246,10.738,23.985,23.985,23.985h229.026
	C156.424,259.919,164.69,107.559,209.192,68.141z"/>
<g>
	<path style="fill:#8BCDD8;" d="M151.677,240.919c-4.036,0-7.368-3.209-7.492-7.271c-0.577-18.872,10.964-35.893,28.717-42.355
		c14.363-5.227,30.658-2.475,42.524,7.184c3.213,2.615,3.697,7.339,1.083,10.551c-2.615,3.213-7.34,3.696-10.551,1.082
		c-7.913-6.441-18.352-8.206-27.925-4.722c-11.656,4.242-19.233,15.415-18.854,27.802c0.126,4.14-3.127,7.599-7.268,7.726
		C151.833,240.917,151.755,240.919,151.677,240.919z"/>
	<path style="fill:#8BCDD8;" d="M403.395,226.779c-0.804,0-1.622-0.13-2.426-0.405c-3.919-1.339-6.011-5.603-4.672-9.523
		c4.387-12.837,1.157-26.768-8.429-36.354c-10.259-10.259-25.5-13.191-38.832-7.476c-3.806,1.633-8.215-0.129-9.849-3.937
		c-1.632-3.807,0.13-8.216,3.937-9.849c19.002-8.148,40.729-3.967,55.351,10.655c13.664,13.664,18.268,33.517,12.017,51.811
		C409.427,224.818,406.515,226.779,403.395,226.779z"/>
	<path style="fill:#8BCDD8;" d="M211.537,138.309c-0.735,0-1.481-0.109-2.22-0.337c-3.956-1.225-6.171-5.425-4.947-9.382
		c3.441-11.119,13.579-18.59,25.227-18.59c10.635,0,20.184,6.329,24.326,16.125c1.613,3.815-0.171,8.215-3.986,9.829
		c-3.816,1.615-8.215-0.171-9.829-3.986c-1.79-4.232-5.915-6.967-10.511-6.967c-5.032,0-9.412,3.225-10.898,8.025
		C217.703,136.242,214.738,138.309,211.537,138.309z"/>
</g>
<path d="M160.94,451.693c-3.891-1.416-8.196,0.59-9.613,4.483l-13.436,36.917c-1.417,3.892,0.59,8.196,4.483,9.613
	c0.847,0.308,1.712,0.454,2.564,0.454c3.063,0,5.94-1.892,7.048-4.937l13.437-36.917C166.84,457.414,164.833,453.11,160.94,451.693z
	 M213.488,384.845c-3.891-1.416-8.196,0.59-9.613,4.483l-13.437,36.917c-1.416,3.892,0.59,8.196,4.483,9.613
	c0.847,0.308,1.712,0.454,2.564,0.454c3.063,0,5.94-1.892,7.048-4.937l13.436-36.917
	C219.387,390.565,217.38,386.262,213.488,384.845z M192.845,318.257c-3.89-1.416-8.196,0.59-9.613,4.483l-13.436,36.917
	c-1.417,3.892,0.59,8.196,4.483,9.613c0.847,0.308,1.712,0.454,2.564,0.454c3.063,0,5.94-1.892,7.048-4.937l13.437-36.917
	C198.745,323.978,196.738,319.674,192.845,318.257z M112.549,318.544c-3.891-1.415-8.196,0.59-9.613,4.483l-13.437,36.917
	c-1.416,3.892,0.59,8.196,4.483,9.613c0.847,0.308,1.712,0.454,2.564,0.454c3.063,0,5.94-1.892,7.048-4.937l13.437-36.917
	C118.448,324.264,116.441,319.961,112.549,318.544z M133.191,385.131c-3.894-1.416-8.195,0.59-9.613,4.483l-13.437,36.917
	c-1.416,3.892,0.59,8.196,4.483,9.613c0.847,0.308,1.713,0.454,2.564,0.454c3.063,0,5.939-1.891,7.048-4.937l13.436-36.917
	C139.091,390.851,137.084,386.548,133.191,385.131z M126.298,151.21c3.168-20.872,13.746-40.029,29.787-53.94
	c16.2-14.049,36.947-21.787,58.421-21.787c17.117,0,33.753,4.874,48.112,14.096c6.638,4.263,15.006,4.904,22.382,1.712
	c10.64-4.603,21.752-7.634,33.185-9.067c0.16-0.012,0.32-0.032,0.481-0.055c4.937-0.599,9.932-0.906,14.975-0.906
	c35.022,0,68.457,15.032,91.73,41.241c2.75,3.097,7.491,3.38,10.588,0.628c3.097-2.75,3.378-7.49,0.628-10.588
	c-26.117-29.413-63.64-46.281-102.946-46.281c-3.843,0-7.659,0.164-11.45,0.474c-16.176-32.944-49.566-53.945-86.587-53.945
	c-13.289,0-26.167,2.656-38.277,7.896c-1.176,0.509-2.472,0.433-3.466-0.206c-11.858-7.617-25.594-11.642-39.724-11.642
	c-17.724,0-34.85,6.388-48.223,17.986C92.679,38.302,83.95,54.117,81.333,71.356c-0.102,0.672-0.609,1.175-1.262,1.252
	C37.32,77.625,5.082,113.901,5.082,156.99c0,13.179,10.722,23.901,23.901,23.901H43.41C16.746,203.164,0,236.645,0,273.667
	c0,17.361,14.124,31.485,31.485,31.485h28.059c4.142,0,7.5-3.358,7.5-7.5s-3.358-7.5-7.5-7.5H31.485
	c-9.09,0-16.485-7.395-16.485-16.485c0-40.1,22.424-75.457,55.972-93.367c0.345-0.146,0.673-0.325,0.99-0.519
	c11.077-5.763,23.336-9.639,36.385-11.17C117.525,167.535,124.907,160.378,126.298,151.21z M66.168,165.891H28.984
	c-4.908,0-8.901-3.993-8.901-8.901c0-35.482,26.541-65.354,61.737-69.484c7.335-0.861,13.233-6.577,14.344-13.899
	c2.082-13.716,9.035-26.306,19.578-35.45c10.646-9.233,24.282-14.318,38.396-14.318c11.25,0,22.183,3.203,31.618,9.263
	c5.205,3.343,11.758,3.849,17.529,1.352c10.218-4.42,21.092-6.662,32.32-6.662c29.585,0,56.43,15.881,70.807,41.164
	c-9.365,1.881-18.511,4.737-27.368,8.568c-2.783,1.205-5.893,0.992-8.321-0.566c-16.781-10.778-36.221-16.475-56.217-16.475
	c-25.084,0-49.322,9.04-68.249,25.455c-18.732,16.245-31.087,38.626-34.789,63.021c-0.387,2.548-2.344,4.458-4.87,4.755
	C92.135,155.41,78.522,159.63,66.168,165.891z M293.784,384.558c-3.89-1.415-8.196,0.59-9.613,4.483l-13.437,36.917
	c-1.416,3.892,0.59,8.196,4.483,9.613c0.847,0.308,1.712,0.454,2.564,0.454c3.063,0,5.94-1.892,7.048-4.937l13.437-36.917
	C299.683,390.279,297.676,385.975,293.784,384.558z M241.237,451.407c-3.889-1.416-8.196,0.59-9.613,4.483l-13.437,36.917
	c-1.416,3.892,0.59,8.196,4.483,9.613c0.847,0.308,1.712,0.454,2.564,0.454c3.063,0,5.94-1.892,7.048-4.937l13.437-36.917
	C247.136,457.127,245.129,452.823,241.237,451.407z M374.08,384.272c-3.891-1.415-8.196,0.59-9.613,4.483l-13.436,36.917
	c-1.417,3.892,0.59,8.196,4.483,9.613c0.847,0.308,1.712,0.454,2.564,0.454c3.063,0,5.94-1.892,7.048-4.937l13.436-36.917
	C379.979,389.992,377.973,385.689,374.08,384.272z M473.732,185.473c-2.708-2.536-4.524-5.753-5.251-9.304
	c-2.142-10.467-5.519-20.686-10.036-30.372c-1.75-3.754-6.215-5.379-9.967-3.628c-3.754,1.751-5.378,6.213-3.628,9.967
	c4.022,8.625,7.028,17.723,8.935,27.042c1.354,6.611,4.706,12.574,9.694,17.245C485.096,216.66,497,244.092,497,273.667
	c0,9.09-7.395,16.485-16.485,16.485H101.968c-4.142,0-7.5,3.358-7.5,7.5s3.358,7.5,7.5,7.5h378.547
	c17.361,0,31.485-14.124,31.485-31.485C512,240.387,498.052,208.242,473.732,185.473z M433.734,317.398
	c-3.89-1.417-8.196,0.59-9.613,4.483l-13.437,36.917c-1.416,3.892,0.59,8.196,4.483,9.613c0.847,0.308,1.712,0.454,2.564,0.454
	c3.063,0,5.94-1.892,7.048-4.937l13.437-36.917C439.633,323.119,437.626,318.815,433.734,317.398z M353.438,317.684
	c-3.891-1.415-8.196,0.59-9.613,4.483l-13.436,36.917c-1.417,3.892,0.59,8.196,4.483,9.613c0.847,0.308,1.712,0.454,2.564,0.454
	c3.063,0,5.94-1.892,7.048-4.937l13.436-36.916C359.337,323.405,357.33,319.101,353.438,317.684z M273.142,317.971
	c-3.891-1.415-8.196,0.59-9.613,4.483l-13.436,36.916c-1.416,3.892,0.59,8.196,4.483,9.613c0.847,0.308,1.712,0.454,2.564,0.454
	c3.063,0,5.94-1.892,7.048-4.937l13.436-36.917C279.041,323.692,277.034,319.388,273.142,317.971z M321.533,451.12
	c-3.89-1.415-8.196,0.59-9.613,4.483l-13.436,36.917c-1.417,3.892,0.59,8.196,4.483,9.613c0.847,0.308,1.712,0.454,2.565,0.454
	c3.063,0,5.94-1.892,7.048-4.937l13.436-36.916C327.432,456.841,325.425,452.537,321.533,451.12z"/>
<g>
</g>
<g>
</g>
<g>
</g>
<g>
</g>
<g>
</g>
<g>
</g>
<g>
</g>
<g>
</g>
<g>
</g>
<g>
</g>
<g>
</g>
<g>
</g>
<g>
</g>
<g>
</g>
<g>
</g>
</svg>
