<?xml version="1.0" standalone="no"?>
<!DOCTYPE svg PUBLIC "-//W3C//DTD SVG 20010904//EN"
 "http://www.w3.org/TR/2001/REC-SVG-20010904/DTD/svg10.dtd">
<svg version="1.0" xmlns="http://www.w3.org/2000/svg"
 width="700.000000pt" height="700.000000pt" viewBox="0 0 700.000000 700.000000"
 preserveAspectRatio="xMidYMid meet">
<metadata>
Created by potrace 1.11, written by Peter Selinger 2001-2013
</metadata>
<g transform="translate(0.000000,700.000000) scale(0.100000,-0.100000)"
fill="#000000" stroke="none">
<path d="M1941 6864 c-106 -19 -173 -41 -276 -90 -274 -133 -473 -386 -540
-686 -9 -43 -18 -78 -20 -78 -23 0 -178 -36 -235 -54 -289 -93 -539 -308 -674
-581 -47 -94 -91 -219 -101 -284 -3 -20 -9 -61 -14 -91 -31 -196 13 -335 133
-413 70 -46 125 -59 261 -60 l116 -1 -78 -75 c-165 -159 -318 -380 -378 -546
-10 -27 -22 -55 -26 -60 -9 -12 -67 -207 -74 -247 -3 -15 -8 -43 -11 -60 -3
-18 -8 -44 -10 -58 -2 -14 -6 -84 -8 -155 -4 -116 -2 -139 18 -197 46 -139
141 -233 282 -279 44 -15 93 -18 296 -19 270 -1 277 1 304 66 l14 34 185 0
185 0 6 -25 c3 -14 20 -36 36 -50 l30 -25 2631 0 c2194 0 2641 3 2683 14 164
43 288 180 315 345 24 153 -21 446 -100 652 -86 222 -198 396 -380 589 -66 69
-97 116 -106 158 -38 192 -130 432 -176 461 -13 7 -42 13 -65 13 -40 -1 -44 1
-64 41 -12 23 -37 63 -56 90 -19 26 -34 52 -34 57 0 6 -3 10 -7 10 -5 0 -16
12 -26 26 -17 23 -17 27 -3 49 20 30 20 77 2 113 -17 31 -121 134 -217 215
-262 217 -620 374 -944 413 -27 3 -61 8 -75 10 -14 3 -96 5 -182 5 l-157 0
-21 42 c-77 149 -229 324 -373 431 -74 55 -209 134 -263 154 -16 6 -53 20 -82
30 -161 61 -381 88 -567 69 -135 -14 -204 -30 -335 -77 l-84 -30 -96 48 c-91
47 -191 85 -255 97 -145 26 -265 29 -384 9z"/>
<path d="M5863 2659 c-18 -5 -40 -20 -48 -32 -25 -39 -205 -543 -205 -575 0
-21 10 -40 32 -62 29 -29 36 -32 77 -27 31 3 52 13 66 29 20 23 200 507 208
558 12 74 -56 130 -130 109z"/>
<path d="M2564 2645 c-47 -19 -48 -22 -179 -390 -26 -71 -51 -138 -56 -147
-14 -28 -10 -87 8 -119 20 -33 83 -52 120 -36 38 17 54 47 102 187 13 36 29
79 36 95 7 17 23 59 35 95 12 36 32 93 46 127 13 34 24 77 24 97 0 67 -74 117
-136 91z"/>
<path d="M3654 2644 c-17 -8 -36 -25 -43 -37 -6 -12 -52 -134 -102 -272 -105
-286 -109 -314 -58 -357 44 -37 89 -37 128 0 24 21 49 80 125 291 53 145 96
272 96 281 0 79 -77 129 -146 94z"/>
<path d="M4742 2644 c-30 -21 -40 -43 -107 -229 -31 -88 -70 -194 -85 -235
-40 -106 -44 -133 -25 -170 17 -33 68 -61 101 -55 10 2 22 4 25 4 12 2 45 37
56 61 7 14 40 102 73 195 34 94 73 200 86 236 34 92 37 115 19 153 -25 53 -96
73 -143 40z"/>
<path d="M1465 2641 c-45 -19 -43 -14 -184 -404 -34 -93 -61 -182 -61 -198 0
-69 90 -117 152 -81 33 19 34 22 103 210 94 257 131 366 129 380 -1 6 -2 19
-3 28 0 9 -15 29 -32 45 -31 29 -65 36 -104 20z"/>
<path d="M2863 1742 c-24 -4 -83 -59 -83 -77 0 -7 -40 -122 -90 -256 -49 -134
-90 -254 -90 -266 -1 -103 130 -146 184 -60 7 12 46 112 86 222 39 110 81 225
93 255 12 30 21 70 20 89 -3 55 -63 102 -120 93z"/>
<path d="M3945 1740 c-39 -15 -56 -49 -130 -251 -41 -112 -83 -229 -95 -259
-35 -95 -27 -146 30 -175 38 -19 65 -19 101 2 22 13 37 39 69 121 22 57 40
108 40 113 0 5 4 17 10 27 5 9 23 55 39 102 16 47 39 110 50 140 28 74 27 120
-4 154 -13 14 -30 26 -37 27 -7 0 -22 2 -33 4 -11 2 -29 0 -40 -5z"/>
<path d="M5013 1721 c-18 -18 -43 -69 -69 -142 -165 -454 -161 -439 -136 -481
20 -34 54 -52 98 -51 59 2 73 21 133 191 21 59 62 171 90 249 55 152 60 186
33 219 -42 52 -106 59 -149 15z"/>
<path d="M1743 1730 c-12 -5 -29 -20 -38 -33 -19 -30 -205 -539 -205 -562 0
-36 31 -81 63 -93 33 -11 46 -11 84 2 31 10 44 35 97 178 25 71 67 185 93 255
54 149 58 192 22 229 -28 27 -82 39 -116 24z"/>
<path d="M3243 833 c-31 -6 -70 -48 -87 -96 -22 -60 -108 -297 -145 -398 -36
-100 -39 -137 -11 -172 37 -47 114 -52 153 -9 16 17 191 483 207 548 6 26 -8
85 -23 101 -11 11 -76 29 -94 26z"/>
<path d="M4325 831 c-11 -5 -28 -18 -38 -29 -17 -18 -191 -479 -207 -548 -19
-80 63 -146 141 -113 32 13 54 53 98 179 17 47 40 110 51 140 12 30 30 80 40
110 10 30 25 73 34 95 24 63 20 108 -10 139 -15 14 -32 26 -38 26 -6 0 -20 2
-31 5 -11 2 -29 0 -40 -4z"/>
<path d="M2102 804 c-18 -18 -42 -68 -66 -134 -21 -58 -63 -172 -94 -255 -68
-186 -72 -211 -38 -252 50 -59 137 -49 169 19 8 18 45 116 82 218 36 102 76
209 87 238 43 110 18 177 -70 189 -36 5 -45 2 -70 -23z"/>
</g>
</svg>
