<svg height="511pt" viewBox="1 -28 511.99962 511" width="511pt" xmlns="http://www.w3.org/2000/svg"><path d="m495.667969 16.832031c-21.777344-21.777343-57.210938-21.777343-78.988281 0l-118.109376 118.109375-60.015624-110.414062-238.554688 430.242187 430.238281-238.558593-110.414062-60.011719 118.109375-118.109375c10.058594-10.058594 26.421875-10.058594 36.476562 0 10.058594 10.054687 10.058594 26.417968 0 36.472656l-22.472656 22.476562 21.253906 21.257813 22.476563-22.476563c21.777343-21.777343 21.777343-57.210937 0-78.988281zm-219.261719 140.273438-172.804688 172.808593 134.691407-242.925781zm-151.550781 194.0625 172.804687-172.804688 70.117188 38.109375zm0 0"/></svg>