<?xml version="1.0" encoding="iso-8859-1"?>
<!-- Generator: Adobe Illustrator 21.0.0, SVG Export Plug-In . SVG Version: 6.00 Build 0)  -->
<svg xmlns="http://www.w3.org/2000/svg" xmlns:xlink="http://www.w3.org/1999/xlink" version="1.1" id="Capa_1" x="0px" y="0px" viewBox="0 0 512.676 512.676" style="enable-background:new 0 0 512.676 512.676;" xml:space="preserve" width="512" height="512">
<path d="M509.899,243.236c-9.532-59.645-40.123-114.303-86.138-153.907C381.044,52.562,327.407,30.98,271.338,27.7V0.338h-30V27.7  C185.27,30.98,131.632,52.562,88.914,89.329c-46.015,39.604-76.605,94.263-86.138,153.907L0,260.604h34.183l4.275-7.768  c11.423-20.755,33.208-33.648,56.853-33.648s45.43,12.894,56.853,33.648l4.275,7.768h38.772l4.275-7.768  c8.952-16.264,24.267-27.698,41.853-31.886v241.185c0,11.14-9.063,20.203-20.203,20.203s-20.203-9.063-20.203-20.203v-28.797h-30  v28.797c0,27.682,22.521,50.203,50.203,50.203s50.203-22.521,50.203-50.203V220.95c17.586,4.188,32.901,15.622,41.854,31.886  l4.274,7.768h38.772l4.275-7.768c11.423-20.755,33.207-33.648,56.853-33.648c23.645,0,45.429,12.894,56.852,33.648l4.275,7.768  h34.183L509.899,243.236z M95.31,189.188c-18.6,0-36.41,5.451-51.498,15.21c27.556-74.374,92.053-128.712,170.275-143.264  c-21.428,26.302-36.944,60.883-45.597,102.181c-4.192,20.006-6.141,38.408-7.01,52.794  C144.011,199.101,120.38,189.188,95.31,189.188z M256.338,189.188c-24.359,0-47.361,9.358-64.67,25.49  c2.864-40.895,15.153-113.458,64.668-153.718c49.357,40.167,61.709,112.745,64.626,153.677  C303.658,198.53,280.675,189.188,256.338,189.188z M417.366,189.188c-25.07,0-48.702,9.914-66.17,26.921  c-0.87-14.386-2.819-32.788-7.011-52.794c-8.653-41.298-24.169-75.879-45.597-102.181c78.222,14.552,142.719,68.889,170.274,143.264  C453.775,194.639,435.966,189.188,417.366,189.188z"/>















</svg>
