<?xml version="1.0" encoding="iso-8859-1"?>
<!-- Generator: Adobe Illustrator 19.0.0, SVG Export Plug-In . SVG Version: 6.00 Build 0)  -->
<svg version="1.1" id="Capa_1" xmlns="http://www.w3.org/2000/svg" xmlns:xlink="http://www.w3.org/1999/xlink" x="0px" y="0px"
	 viewBox="0 0 512 512" style="enable-background:new 0 0 512 512;" xml:space="preserve">
<g>
	<g>
		<g>
			<path d="M478.904,194.936l-21.443-1.528c-3.823-12.308-8.795-24.283-14.834-35.724l14.075-16.273
				c12.157-14.056,11.386-35.36-1.754-48.501l-35.977-35.977c-13.157-13.154-34.474-13.915-48.531-1.728L354.179,69.3
				c-11.44-6.028-23.42-10.992-35.735-14.806l-1.553-21.439c-1.342-18.534-16.952-33.054-35.536-33.054h-50.88
				c-18.606,0-34.216,14.536-35.539,33.093l-1.529,21.445c-12.255,3.806-24.178,8.752-35.571,14.754l-16.278-14.101
				c-14.058-12.178-35.373-11.413-48.523,1.735L57.059,92.904c-13.146,13.144-13.913,34.452-1.747,48.51l14.068,16.255
				c-6.04,11.441-11.014,23.415-14.837,35.723l-21.459,1.538C14.532,196.258,0,211.868,0,230.467v50.88
				c0,18.59,14.525,34.2,33.065,35.537l21.423,1.545c3.814,12.314,8.777,24.294,14.804,35.735L55.19,370.442
				c-12.177,14.058-11.414,35.372,1.737,48.523l17.389,17.388c3.119,3.119,8.179,3.12,11.3-0.001c3.12-3.12,3.12-8.18-0.001-11.3
				l-17.388-17.388c-7.253-7.253-7.673-19.006-0.957-26.758l17.728-20.465c2.207-2.547,2.578-6.206,0.927-9.145
				c-7.56-13.462-13.497-27.793-17.644-42.595c-0.91-3.246-3.757-5.572-7.119-5.814l-26.946-1.944
				c-10.225-0.738-18.234-9.345-18.234-19.597v-50.88c0-10.257,8.013-18.865,18.243-19.597l26.98-1.933
				c3.361-0.24,6.21-2.564,7.121-5.808c4.159-14.791,10.109-29.118,17.686-42.581c1.653-2.94,1.285-6.6-0.922-9.149l-17.694-20.444
				c-6.709-7.751-6.287-19.502,0.963-26.75l35.977-35.977c7.254-7.253,19.006-7.672,26.758-0.957l20.464,17.729
				c2.546,2.207,6.207,2.578,9.145,0.927c13.417-7.538,27.697-13.46,42.442-17.603c3.245-0.912,5.569-3.762,5.809-7.125
				l1.924-26.967c0.729-10.233,9.337-18.249,19.597-18.249h50.88c10.249,0,18.856,8.007,19.596,18.228l1.954,26.958
				c0.243,3.361,2.569,6.208,5.813,7.117c14.803,4.149,29.134,10.086,42.595,17.648c2.94,1.651,6.601,1.28,9.147-0.929
				l20.448-17.724c7.751-6.719,19.508-6.302,26.762,0.954l35.977,35.974c7.247,7.246,7.672,18.994,0.968,26.745l-17.697,20.462
				c-2.205,2.549-2.573,6.209-0.92,9.146c7.574,13.462,13.522,27.789,17.68,42.583c0.912,3.245,3.762,5.569,7.125,5.809
				l26.965,1.923c10.235,0.729,18.252,9.338,18.252,19.597v50.88c0,10.248-8.008,18.856-18.229,19.597l-26.958,1.953
				c-3.361,0.243-6.208,2.569-7.117,5.814c-4.147,14.797-10.085,29.128-17.648,42.594c-1.651,2.94-1.28,6.6,0.929,9.147
				l17.724,20.448c6.72,7.752,6.301,19.508-0.952,26.762l-35.979,35.977c-7.247,7.248-18.995,7.672-26.745,0.968l-20.462-17.697
				c-2.548-2.205-6.206-2.573-9.146-0.92c-13.505,7.598-27.883,13.561-42.736,17.722c-3.245,0.91-5.572,3.757-5.814,7.12
				l-1.943,26.945c-0.738,10.225-9.345,18.234-19.597,18.234h-50.88c-10.256,0-18.864-8.013-19.598-18.244l-1.933-26.979
				c-0.24-3.361-2.564-6.21-5.808-7.121c-14.793-4.16-29.12-10.109-42.58-17.685c-2.943-1.653-6.601-1.285-9.149,0.922
				l-20.444,17.694c-7.752,6.709-19.502,6.284-26.75-0.963c-3.121-3.121-8.181-3.12-11.3-0.001c-3.121,3.12-3.121,8.18-0.001,11.3
				c13.144,13.145,34.452,13.914,48.51,1.748l16.255-14.068c11.44,6.039,23.413,11.012,35.722,14.836l1.538,21.46
				c1.329,18.551,16.94,33.083,35.538,33.083h50.88c18.59,0,34.2-14.524,35.536-33.066l1.544-21.422
				c12.37-3.83,24.399-8.819,35.889-14.884l16.273,14.075c14.054,12.156,35.359,11.387,48.501-1.754l35.978-35.978
				c13.154-13.155,13.913-34.473,1.727-48.53L442.7,354.18c6.03-11.444,10.993-23.422,14.806-35.734l21.439-1.553
				C497.48,315.548,512,299.94,512,281.355v-50.88C512,211.871,497.463,196.261,478.904,194.936z"/>
			<path d="M256,169.176c8.733,0,17.346,1.29,25.601,3.833c4.216,1.302,8.691-1.064,9.989-5.282
				c1.301-4.218-1.065-8.689-5.282-9.989c-9.782-3.015-19.979-4.543-30.308-4.543c-56.687,0-102.805,46.119-102.805,102.805
				c0,56.688,46.119,102.806,102.805,102.806c56.687,0,102.806-46.118,102.805-102.807c0-32.445-14.843-62.315-40.722-81.948
				c-3.517-2.668-8.53-1.979-11.195,1.536c-2.667,3.515-1.98,8.528,1.536,11.195c21.861,16.586,34.4,41.815,34.4,69.217
				c0,47.874-38.95,86.824-86.824,86.824c-47.874,0-86.823-38.95-86.823-86.824C169.177,208.125,208.125,169.176,256,169.176z"/>
		</g>
	</g>
</g>
<g>
</g>
<g>
</g>
<g>
</g>
<g>
</g>
<g>
</g>
<g>
</g>
<g>
</g>
<g>
</g>
<g>
</g>
<g>
</g>
<g>
</g>
<g>
</g>
<g>
</g>
<g>
</g>
<g>
</g>
</svg>
